<?xml version="1.0" encoding="utf-8"?>
<!-- Generator: Adobe Illustrator 21.1.0, SVG Export Plug-In . SVG Version: 6.00 Build 0)  -->
<svg version="1.1" baseProfile="tiny" id="Capa_1" xmlns="http://www.w3.org/2000/svg" xmlns:xlink="http://www.w3.org/1999/xlink"
	 x="0px" y="0px" viewBox="0 0 14 14" overflow="scroll" xml:space="preserve">
<g>
	<g>
		<g>
			<path d="M9.1,1.5H4.2c-0.2,0-0.4-0.2-0.4-0.4V0L0,3.7l3.7,3.7V6.4C3.7,6.2,3.9,6,4.2,6h4.5c2.5,0,4.5,2,4.5,4.5H14v-4
				C14,3.7,11.8,1.5,9.1,1.5z M13.1,7.5c-1-1.5-2.7-2.4-4.5-2.4H4.2c-0.4,0-0.8,0.2-1.1,0.5L1.3,3.7l1.9-1.9
				c0.3,0.3,0.6,0.5,1.1,0.5h4.9c2.2,0,4,1.8,4,4V7.5z"/>
			<rect x="13.1" y="11.3" width="0.9" height="0.9"/>
			<rect x="13.1" y="13.1" width="0.9" height="0.9"/>
		</g>
	</g>
</g>
</svg>
