<?xml version="1.0" encoding="utf-8"?>
<!-- Generator: Adobe Illustrator 21.1.0, SVG Export Plug-In . SVG Version: 6.00 Build 0)  -->
<svg version="1.1" id="Capa_1" xmlns="http://www.w3.org/2000/svg" xmlns:xlink="http://www.w3.org/1999/xlink" x="0px" y="0px"
	 viewBox="0 0 17 17" style="enable-background:new 0 0 17 17;" xml:space="preserve">
<style type="text/css">
	.st0{fill:#8C8C8C;}
</style>
<g>
	<path class="st0" d="M12,4.9c-0.3,0-0.5,0.2-0.5,0.5v7.7c0,0.8-0.3,1.4-0.9,2C10,15.7,9.3,16,8.5,16S7,15.7,6.4,15.2
		s-0.9-1.2-0.9-2v-2.9V8.7V4.9V3l0,0l0,0c0-0.5,0.2-1,0.6-1.3C6.5,1.3,7,1.1,7.6,1.1s1,0.2,1.4,0.6C9.4,2,9.6,2.5,9.6,3l0,0l0,0v8.6
		c0,0.5-0.4,1-1,1c-0.5,0-1-0.4-1-1V7.1c0-0.3-0.2-0.5-0.5-0.5S6.5,6.8,6.5,7.1v4.5c0,0.6,0.2,1,0.6,1.4s0.9,0.6,1.5,0.6
		s1.1-0.2,1.5-0.6c0.4-0.4,0.6-0.8,0.6-1.4V3l0,0c0-0.8-0.3-1.5-0.9-2.1C9.1,0.3,8.4,0,7.6,0C6.7,0,6,0.3,5.4,0.9S4.5,2.2,4.5,3l0,0
		v1.9v3.8v1.6v2.9c0,1.1,0.4,2,1.2,2.7S7.4,17,8.5,17s2.1-0.4,2.8-1.1c0.8-0.8,1.2-1.7,1.2-2.7V5.4C12.5,5.1,12.3,4.9,12,4.9z"/>
</g>
</svg>
