<?xml version="1.0" encoding="utf-8"?>
<!-- Generator: Adobe Illustrator 21.1.0, SVG Export Plug-In . SVG Version: 6.00 Build 0)  -->
<svg version="1.1" id="Capa_1" xmlns="http://www.w3.org/2000/svg" xmlns:xlink="http://www.w3.org/1999/xlink" x="0px" y="0px"
	 viewBox="0 0 39 39" style="enable-background:new 0 0 39 39;" xml:space="preserve">
<style type="text/css">
	.st0{fill:#329DD6;}
</style>
<g>
	<g>
		<path class="st0" d="M37.1,8.7h-7.8l-1.6-4.6c-0.2-0.5-0.7-0.9-1.2-0.9H12.9c-0.7,0.2-1.2,0.5-1.4,1.2L9.9,9H2C0.9,8.7,0,9.9,0,11
			v22.4c0,1.2,0.9,2.3,2.1,2.3h34.8c1.2,0,2.1-0.9,2.1-2.3V11C39.2,9.9,38.2,8.7,37.1,8.7z M36.6,32.9H2.5V11.5h8.3
			c0.5,0,0.9-0.2,1.2-0.9L13.6,6h11.8l1.6,4.6c0.5,0.7,0.9,0.9,1.4,0.9h8.3V32.9L36.6,32.9z"/>
	</g>
</g>
<g>
	<g>
		<path class="st0" d="M19.6,11.7c-5.1,0-9.2,4.2-9.2,9.5s4.2,9.5,9.2,9.5s9.2-4.2,9.2-9.5S24.6,11.7,19.6,11.7z M19.6,27.9
			c-3.7,0-6.7-3-6.7-6.7s3-6.7,6.7-6.7s6.7,3,6.7,6.7C26.2,24.9,23.2,27.9,19.6,27.9z"/>
	</g>
</g>
</svg>
