<?xml version="1.0" encoding="utf-8"?>
<!-- Generator: Adobe Illustrator 21.1.0, SVG Export Plug-In . SVG Version: 6.00 Build 0)  -->
<svg version="1.1" id="Layer_1" xmlns="http://www.w3.org/2000/svg" xmlns:xlink="http://www.w3.org/1999/xlink" x="0px" y="0px"
	 viewBox="0 0 82 82" style="enable-background:new 0 0 82 82;" xml:space="preserve">
<style type="text/css">
	.st0{fill:#CACACA;}
</style>
<g id="XMLID_840_">
	<path id="XMLID_841_" class="st0" d="M74.4,28.4c0-0.9-0.2-1.5-0.7-2.1l0,0c0-0.2-0.2-0.2-0.2-0.3l0,0l-0.2-0.2l0,0
		c0,0,0,0-0.2-0.2L48.5,0.8l-0.2-0.2l0,0l-0.2-0.2c0,0,0,0-0.2,0c0,0-0.2,0-0.2-0.2l0,0c-0.2,0-0.2-0.2-0.3-0.2c0,0,0,0-0.2,0h-0.2
		H47h-0.2c0,0,0,0-0.2,0c-0.2,0-0.2,0-0.3,0c0,0,0,0-0.2,0c0,0-0.2,0-0.3,0l0,0H11.3C9.2-0.2,7.5,1.5,7.5,3.6v74.8
		c0,2.1,1.7,3.8,3.8,3.8h59.5c2.1,0,3.8-1.7,3.8-3.8L74.4,28.4C74.4,28.6,74.4,28.4,74.4,28.4z M49.7,12.5l12,12.2h-12
		C49.7,24.6,49.7,12.5,49.7,12.5z M14.9,74.5V7.3h27.3v21.3c0,2.1,1.7,3.8,3.8,3.8H67v42.3H14.9V74.5z"/>
	<path id="XMLID_845_" class="st0" d="M49.9,63.4l-5.5-10.1l5.3-9.9c0.3-0.5,0.5-1,0.5-1.5c0-1.5-1.4-2.9-3.3-2.9
		c-1.7,0-2.4,1.4-2.7,2.1l0,0L41,47.3l-3.3-6.2c-0.3-0.7-1.2-2.2-2.7-2.2c-1.7,0-3.3,1.2-3.3,2.9c0,0.5,0.2,1,0.5,1.5l5.3,9.9
		l-5.3,9.9l0,0c-0.2,0.5-0.3,0.9-0.3,1.4c0,1.7,1.7,2.9,3.3,2.9c1.7,0,2.4-1.5,2.7-2.1l3.4-6.3l3.4,6.3c0.3,0.7,1,2.1,2.7,2.1
		c1.5,0,3.3-1.2,3.3-2.9C50.2,64.3,50.1,63.9,49.9,63.4L49.9,63.4z"/>
</g>
</svg>
