<?xml version="1.0" encoding="utf-8"?>
<!-- Generator: Adobe Illustrator 21.1.0, SVG Export Plug-In . SVG Version: 6.00 Build 0)  -->
<svg version="1.1" id="Capa_1" xmlns="http://www.w3.org/2000/svg" xmlns:xlink="http://www.w3.org/1999/xlink" x="0px" y="0px"
	 viewBox="0 0 17 17" style="enable-background:new 0 0 17 17;" xml:space="preserve">
<style type="text/css">
	.st0{fill:#8C8C8C;}
</style>
<g>
	<g>
		<path class="st0" d="M16.1,3.8h-3.4l-0.7-2c-0.1-0.2-0.3-0.4-0.5-0.4H5.6C5.3,1.5,5.1,1.6,5,1.9l-0.7,2H0.9C0.4,3.8,0,4.3,0,4.8
			v9.7c0,0.5,0.4,1,0.9,1H16c0.5,0,0.9-0.4,0.9-1V4.8C17,4.3,16.6,3.8,16.1,3.8z M15.9,14.3H1.1V5h3.6c0.2,0,0.4-0.1,0.5-0.4l0.7-2
			H11l0.7,2C11.9,4.9,12.1,5,12.3,5h3.6V14.3L15.9,14.3z"/>
	</g>
</g>
<g>
	<g>
		<path class="st0" d="M8.5,5.1c-2.2,0-4,1.8-4,4.1s1.8,4.1,4,4.1s4-1.8,4-4.1S10.7,5.1,8.5,5.1z M8.5,12.1c-1.6,0-2.9-1.3-2.9-2.9
			s1.3-2.9,2.9-2.9s2.9,1.3,2.9,2.9S10.1,12.1,8.5,12.1z"/>
	</g>
</g>
</svg>
