<?xml version="1.0" encoding="utf-8"?>
<!-- Generator: Adobe Illustrator 21.1.0, SVG Export Plug-In . SVG Version: 6.00 Build 0)  -->
<svg version="1.1" baseProfile="tiny" id="Слой_1"
	 xmlns="http://www.w3.org/2000/svg" xmlns:xlink="http://www.w3.org/1999/xlink" x="0px" y="0px" viewBox="0 0 17 19"
	 overflow="scroll" xml:space="preserve">
<g>
	<path fill="#C8C8C8" d="M13.5,10.1c0-2.4,2-3.6,2.1-3.6c-1.1-1.6-2.9-1.9-3.5-1.9c-1.5-0.1-2.9,0.9-3.6,0.9c-0.7,0-1.9-0.8-3.1-0.8
		C3.7,4.7,2.2,5.6,1.3,7c-1.7,2.9-0.4,7.2,1.2,9.6c0.8,1.2,1.7,2.5,3,2.4c1.2,0,1.7-0.8,3.1-0.8c1.5,0,1.9,0.8,3.1,0.8
		c1.3,0,2.1-1.2,2.9-2.3c0.9-1.3,1.3-2.6,1.3-2.7C16,13.9,13.5,13,13.5,10.1z M11.1,3c0.7-0.8,1.1-1.9,1-3c-1,0-2.1,0.6-2.8,1.4
		c-0.6,0.7-1.2,1.8-1,2.9C9.3,4.5,10.4,3.8,11.1,3z"/>
</g>
</svg>
