<?xml version="1.0" encoding="utf-8"?>
<!-- Generator: Adobe Illustrator 21.1.0, SVG Export Plug-In . SVG Version: 6.00 Build 0)  -->
<svg version="1.1" baseProfile="tiny" id="Capa_1" xmlns="http://www.w3.org/2000/svg" xmlns:xlink="http://www.w3.org/1999/xlink"
	 x="0px" y="0px" viewBox="0 0 19 19" overflow="scroll" xml:space="preserve">
<g>
	<g>
		<path fill="#CAA5A4" d="M16.2,2.8C14.4,1,12,0,9.5,0S4.6,1,2.8,2.8S0,7,0,9.5s1,4.9,2.8,6.7S7,19,9.5,19s4.9-1,6.7-2.8
			S19,12,19,9.5S18,4.6,16.2,2.8z M15.5,15.5c-1.6,1.6-3.7,2.5-6,2.5s-4.4-0.9-6-2.5c-3.3-3.3-3.3-8.6,0-11.9c1.6-1.6,3.7-2.5,6-2.5
			s4.4,0.9,6,2.5C18.7,6.8,18.7,12.2,15.5,15.5z"/>
		<path fill="#CAA5A4" d="M13.7,5.3c-0.2-0.2-0.6-0.2-0.8,0L9.5,8.7L6.1,5.3c-0.2-0.2-0.6-0.2-0.8,0s-0.2,0.6,0,0.8l3.4,3.4
			l-3.4,3.4c-0.2,0.2-0.2,0.6,0,0.8c0.1,0.1,0.2,0.2,0.4,0.2c0.1,0,0.3-0.1,0.4-0.2l3.4-3.4l3.4,3.4c0.1,0.1,0.2,0.2,0.4,0.2
			c0.1,0,0.3-0.1,0.4-0.2c0.2-0.2,0.2-0.6,0-0.8l-3.4-3.4l3.4-3.4C13.9,5.9,13.9,5.5,13.7,5.3z"/>
	</g>
</g>
</svg>
