<?xml version="1.0" encoding="utf-8"?>
<!-- Generator: Adobe Illustrator 21.1.0, SVG Export Plug-In . SVG Version: 6.00 Build 0)  -->
<svg version="1.1" baseProfile="tiny" id="Capa_1" xmlns="http://www.w3.org/2000/svg" xmlns:xlink="http://www.w3.org/1999/xlink"
	 x="0px" y="0px" viewBox="0 0 19 19" overflow="scroll" xml:space="preserve">
<g>
	<g>
		<g>
			<path fill="#C8C8C8" d="M9.5,0C4.3,0,0,4.3,0,9.5S4.3,19,9.5,19S19,14.8,19,9.5S14.8,0,9.5,0z M9.5,17.3c-4.3,0-7.8-3.5-7.8-7.8
				s3.5-7.8,7.8-7.8s7.8,3.5,7.8,7.8S13.8,17.3,9.5,17.3z"/>
			<path fill="#C8C8C8" d="M10.8,12.9L10,13.3L11,8c0.1-0.6-0.5-1.2-1.1-0.8L8,8.2c-0.4,0.2-0.5,0.7-0.3,1c0.2,0.4,0.7,0.5,1,0.3
				l0.5-0.2l-1,5.1c-0.1,0.4,0.3,0.9,0.8,0.9c0.1,0,0.2,0,0.3-0.1l2.1-0.9c0.4-0.2,0.6-0.6,0.4-1C11.6,12.9,11.2,12.8,10.8,12.9z"/>
			<path fill="#C8C8C8" d="M10.3,5.7c0.6,0,1.1-0.5,1.1-1.1s-0.5-1.1-1.1-1.1C9.7,3.6,9.2,4,9.2,4.6S9.7,5.7,10.3,5.7z"/>
		</g>
	</g>
</g>
</svg>
