<?xml version="1.0" encoding="utf-8"?>
<!-- Generator: Adobe Illustrator 21.1.0, SVG Export Plug-In . SVG Version: 6.00 Build 0)  -->
<svg version="1.1" id="Capa_1" xmlns="http://www.w3.org/2000/svg" xmlns:xlink="http://www.w3.org/1999/xlink" x="0px" y="0px"
	 viewBox="0 0 155 155" style="enable-background:new 0 0 155 155;" xml:space="preserve">
<style type="text/css">
	.st0{fill:#02BE9C;}
</style>
<g>
	<path class="st0" d="M77.5,0C34.9,0,0.1,34.9,0.1,77.5S34.9,155,77.5,155s77.4-34.9,77.4-77.5S120.1,0,77.5,0z M77.5,145.3
		c-37.3,0-67.7-30.5-67.7-67.8S40.3,9.7,77.5,9.7s67.7,30.5,67.7,67.8S114.8,145.3,77.5,145.3z"/>
	<path class="st0" d="M108,54.7L67.8,94.9L47.5,74.6c-1.9-1.9-4.8-1.9-6.8,0c-1.9,1.9-1.9,4.8,0,6.8l23.7,23.7c1,1,1.9,1.5,3.4,1.5
		s2.4-0.5,3.4-1.5l43.5-43.6c1.9-1.9,1.9-4.8,0-6.8C112.8,52.8,109.9,52.8,108,54.7z"/>
</g>
</svg>
