<?xml version="1.0" encoding="utf-8"?>
<!-- Generator: Adobe Illustrator 21.1.0, SVG Export Plug-In . SVG Version: 6.00 Build 0)  -->
<svg version="1.1" baseProfile="tiny" id="Layer_1" xmlns="http://www.w3.org/2000/svg" xmlns:xlink="http://www.w3.org/1999/xlink"
	 x="0px" y="0px" viewBox="0 0 13 17" xml:space="preserve">
<g id="XMLID_1_">
	<path id="XMLID_3_" fill="#FFFFFF" d="M13,5.9c0-0.2,0-0.3-0.1-0.4c0,0,0,0,0,0c0,0,0,0,0-0.1c0,0,0,0,0,0c0,0,0,0,0,0c0,0,0,0,0,0
		c0,0,0,0,0,0L8,0.2c0,0,0,0,0,0c0,0,0,0,0,0c0,0,0,0,0,0c0,0,0,0,0,0c0,0,0,0,0,0c0,0,0,0,0,0c0,0,0,0-0.1,0c0,0,0,0,0,0
		c0,0,0,0,0,0c0,0,0,0,0,0c0,0,0,0,0,0c0,0,0,0,0,0c0,0,0,0-0.1,0c0,0,0,0,0,0c0,0,0,0-0.1,0c0,0,0,0,0,0H0.7C0.3,0,0,0.3,0,0.8
		v15.5C0,16.7,0.3,17,0.7,17h11.6c0.4,0,0.7-0.3,0.7-0.8L13,5.9C13,5.9,13,5.9,13,5.9z M8.2,2.6l2.3,2.5H8.2V2.6z M1.4,15.5V1.5h5.3
		v4.4c0,0.4,0.3,0.8,0.7,0.8h4.1v8.8H1.4z"/>
	<path id="XMLID_2_" fill="#FFFFFF" d="M8.2,13.1l-1-2.1l1-2c0.1-0.1,0.1-0.2,0.1-0.3c0-0.3-0.3-0.6-0.6-0.6c-0.3,0-0.5,0.3-0.5,0.4
		c0,0,0,0,0,0L6.5,9.8L5.9,8.5C5.8,8.4,5.7,8.1,5.3,8.1C5,8.1,4.7,8.4,4.7,8.7c0,0.1,0,0.2,0.1,0.3l1,2l-1,2.1c0,0,0,0,0,0
		c0,0.1-0.1,0.2-0.1,0.3C4.7,13.8,5,14,5.3,14c0.3,0,0.5-0.3,0.5-0.4l0.7-1.3l0.7,1.3C7.2,13.7,7.4,14,7.7,14c0.3,0,0.6-0.3,0.6-0.6
		C8.3,13.3,8.3,13.2,8.2,13.1C8.2,13.1,8.2,13.1,8.2,13.1z"/>
</g>
</svg>
