<?xml version="1.0" encoding="utf-8"?>
<!-- Generator: Adobe Illustrator 21.1.0, SVG Export Plug-In . SVG Version: 6.00 Build 0)  -->
<svg version="1.1" baseProfile="tiny" id="Слой_1"
	 xmlns="http://www.w3.org/2000/svg" xmlns:xlink="http://www.w3.org/1999/xlink" x="0px" y="0px" viewBox="0 0 18 19"
	 overflow="scroll" xml:space="preserve">
<g>
	<path fill="#C8C8C8" d="M2.8,12.8c0,3.4,2.8,6.2,6.2,6.2s6.2-2.8,6.2-6.2V9.3H2.8V12.8z M12.6,2.6l1.9-1.9L13.7,0l-2,2
		c-0.8-0.4-1.7-0.7-2.7-0.7S7,1.6,6.2,2l-2-2L3.5,0.7l1.9,1.9c-1.5,1.1-2.5,2.9-2.5,5v0.9h12.3V7.5C15.1,5.5,14.1,3.7,12.6,2.6z
		 M6.3,6.7c-0.5,0-0.9-0.4-0.9-0.9c0-0.5,0.4-0.9,0.9-0.9s0.9,0.4,0.9,0.9C7.2,6.3,6.8,6.7,6.3,6.7z M11.6,6.7
		c-0.5,0-0.9-0.4-0.9-0.9c0-0.5,0.4-0.9,0.9-0.9c0.5,0,0.9,0.4,0.9,0.9C12.5,6.3,12.1,6.7,11.6,6.7z"/>
</g>
</svg>
