<?xml version="1.0" encoding="utf-8"?>
<!-- Generator: Adobe Illustrator 21.1.0, SVG Export Plug-In . SVG Version: 6.00 Build 0)  -->
<svg version="1.1" baseProfile="tiny" id="Слой_1"
	 xmlns="http://www.w3.org/2000/svg" xmlns:xlink="http://www.w3.org/1999/xlink" x="0px" y="0px" viewBox="0 0 19 19"
	 overflow="scroll" xml:space="preserve">
<path fill="#319CD6" d="M9.5,7.6c-1,0-1.9,0.8-1.9,1.9c0,1,0.8,1.9,1.9,1.9c1,0,1.9-0.8,1.9-1.9C11.4,8.5,10.5,7.6,9.5,7.6z
	 M9.5,7.6c-1,0-1.9,0.8-1.9,1.9c0,1,0.8,1.9,1.9,1.9c1,0,1.9-0.8,1.9-1.9C11.4,8.5,10.5,7.6,9.5,7.6z M12.6,4.5H6.4
	c-1,0-1.8,0.8-1.8,1.8v6.3c0,1,0.8,1.8,1.8,1.8h6.3c1,0,1.8-0.8,1.8-1.8V6.4C14.5,5.3,13.7,4.5,12.6,4.5z M9.5,12.8
	c-1.8,0-3.3-1.5-3.3-3.3c0-1.8,1.5-3.3,3.3-3.3c1.8,0,3.3,1.5,3.3,3.3C12.8,11.3,11.3,12.8,9.5,12.8z M12.9,6.9
	c-0.4,0-0.8-0.3-0.8-0.8s0.3-0.8,0.8-0.8c0.4,0,0.8,0.3,0.8,0.8C13.7,6.6,13.3,6.9,12.9,6.9z M9.5,7.6c-1,0-1.9,0.8-1.9,1.9
	c0,1,0.8,1.9,1.9,1.9c1,0,1.9-0.8,1.9-1.9C11.4,8.5,10.5,7.6,9.5,7.6z M12.6,4.5H6.4c-1,0-1.8,0.8-1.8,1.8v6.3c0,1,0.8,1.8,1.8,1.8
	h6.3c1,0,1.8-0.8,1.8-1.8V6.4C14.5,5.3,13.7,4.5,12.6,4.5z M9.5,12.8c-1.8,0-3.3-1.5-3.3-3.3c0-1.8,1.5-3.3,3.3-3.3
	c1.8,0,3.3,1.5,3.3,3.3C12.8,11.3,11.3,12.8,9.5,12.8z M12.9,6.9c-0.4,0-0.8-0.3-0.8-0.8s0.3-0.8,0.8-0.8c0.4,0,0.8,0.3,0.8,0.8
	C13.7,6.6,13.3,6.9,12.9,6.9z M9.5,7.6c-1,0-1.9,0.8-1.9,1.9c0,1,0.8,1.9,1.9,1.9c1,0,1.9-0.8,1.9-1.9C11.4,8.5,10.5,7.6,9.5,7.6z
	 M0,0v19h19V0H0z M15.9,12.6c0,1.8-1.4,3.2-3.2,3.2H6.4c-1.8,0-3.2-1.4-3.2-3.2V6.4c0-1.8,1.4-3.2,3.2-3.2h6.3
	c1.8,0,3.2,1.4,3.2,3.2L15.9,12.6L15.9,12.6z M12.6,4.5H6.4c-1,0-1.8,0.8-1.8,1.8v6.3c0,1,0.8,1.8,1.8,1.8h6.3c1,0,1.8-0.8,1.8-1.8
	V6.4C14.5,5.3,13.7,4.5,12.6,4.5z M9.5,12.8c-1.8,0-3.3-1.5-3.3-3.3c0-1.8,1.5-3.3,3.3-3.3c1.8,0,3.3,1.5,3.3,3.3
	C12.8,11.3,11.3,12.8,9.5,12.8z M12.9,6.9c-0.4,0-0.8-0.3-0.8-0.8s0.3-0.8,0.8-0.8c0.4,0,0.8,0.3,0.8,0.8
	C13.7,6.6,13.3,6.9,12.9,6.9z M9.5,7.6c-1,0-1.9,0.8-1.9,1.9c0,1,0.8,1.9,1.9,1.9c1,0,1.9-0.8,1.9-1.9C11.4,8.5,10.5,7.6,9.5,7.6z
	 M9.5,7.6c-1,0-1.9,0.8-1.9,1.9c0,1,0.8,1.9,1.9,1.9c1,0,1.9-0.8,1.9-1.9C11.4,8.5,10.5,7.6,9.5,7.6z M9.5,7.6c-1,0-1.9,0.8-1.9,1.9
	c0,1,0.8,1.9,1.9,1.9c1,0,1.9-0.8,1.9-1.9C11.4,8.5,10.5,7.6,9.5,7.6z M12.6,4.5H6.4c-1,0-1.8,0.8-1.8,1.8v6.3c0,1,0.8,1.8,1.8,1.8
	h6.3c1,0,1.8-0.8,1.8-1.8V6.4C14.5,5.3,13.7,4.5,12.6,4.5z M9.5,12.8c-1.8,0-3.3-1.5-3.3-3.3c0-1.8,1.5-3.3,3.3-3.3
	c1.8,0,3.3,1.5,3.3,3.3C12.8,11.3,11.3,12.8,9.5,12.8z M12.9,6.9c-0.4,0-0.8-0.3-0.8-0.8s0.3-0.8,0.8-0.8c0.4,0,0.8,0.3,0.8,0.8
	C13.7,6.6,13.3,6.9,12.9,6.9z M9.5,7.6c-1,0-1.9,0.8-1.9,1.9c0,1,0.8,1.9,1.9,1.9c1,0,1.9-0.8,1.9-1.9C11.4,8.5,10.5,7.6,9.5,7.6z
	 M9.5,7.6c-1,0-1.9,0.8-1.9,1.9c0,1,0.8,1.9,1.9,1.9c1,0,1.9-0.8,1.9-1.9C11.4,8.5,10.5,7.6,9.5,7.6z M9.5,7.6c-1,0-1.9,0.8-1.9,1.9
	c0,1,0.8,1.9,1.9,1.9c1,0,1.9-0.8,1.9-1.9C11.4,8.5,10.5,7.6,9.5,7.6z M12.6,4.5H6.4c-1,0-1.8,0.8-1.8,1.8v6.3c0,1,0.8,1.8,1.8,1.8
	h6.3c1,0,1.8-0.8,1.8-1.8V6.4C14.5,5.3,13.7,4.5,12.6,4.5z M9.5,12.8c-1.8,0-3.3-1.5-3.3-3.3c0-1.8,1.5-3.3,3.3-3.3
	c1.8,0,3.3,1.5,3.3,3.3C12.8,11.3,11.3,12.8,9.5,12.8z M12.9,6.9c-0.4,0-0.8-0.3-0.8-0.8s0.3-0.8,0.8-0.8c0.4,0,0.8,0.3,0.8,0.8
	C13.7,6.6,13.3,6.9,12.9,6.9z M9.5,7.6c-1,0-1.9,0.8-1.9,1.9c0,1,0.8,1.9,1.9,1.9c1,0,1.9-0.8,1.9-1.9C11.4,8.5,10.5,7.6,9.5,7.6z"
	/>
</svg>
