<?xml version="1.0" encoding="utf-8"?>
<!-- Generator: Adobe Illustrator 21.1.0, SVG Export Plug-In . SVG Version: 6.00 Build 0)  -->
<svg version="1.1" baseProfile="tiny" id="Capa_1" xmlns="http://www.w3.org/2000/svg" xmlns:xlink="http://www.w3.org/1999/xlink"
	 x="0px" y="0px" viewBox="0 0 18 18" overflow="scroll" xml:space="preserve">
<g>
	<path d="M16.5,2.6c-0.9-0.9-2.2-1.5-3.5-1.5s-2.6,0.5-3.5,1.5L9,3.1L8.5,2.6C7.6,1.6,6.3,1.1,5,1.1c-1.3,0-2.6,0.5-3.5,1.5
		C0.5,3.5,0,4.7,0,6.1c0,1.3,0.5,2.6,1.5,3.5l7.2,7.2c0.1,0.1,0.2,0.2,0.4,0.2c0.1,0,0.3,0,0.4-0.1l7.2-7.2C17.5,8.7,18,7.4,18,6.1
		C18,4.8,17.5,3.5,16.5,2.6z M15.8,8.9L9,15.7L2.2,8.9C1.4,8.1,1,7.1,1,6.1s0.4-2,1.2-2.8C2.9,2.5,3.9,2.1,5,2.1
		C6,2.1,7,2.5,7.8,3.3l0.9,0.9c0.2,0.2,0.5,0.2,0.7,0l0.9-0.9C11,2.5,12,2.1,13,2.1s2,0.4,2.8,1.2C16.6,4,17,5,17,6.1
		C17,7.1,16.6,8.1,15.8,8.9z"/>
</g>
</svg>
