<?xml version="1.0" encoding="utf-8"?>
<!-- Generator: Adobe Illustrator 21.1.0, SVG Export Plug-In . SVG Version: 6.00 Build 0)  -->
<svg version="1.1" baseProfile="tiny" id="Layer_1" xmlns="http://www.w3.org/2000/svg" xmlns:xlink="http://www.w3.org/1999/xlink"
	 x="0px" y="0px" viewBox="0 0 48 48" overflow="scroll" xml:space="preserve">
<g id="XMLID_840_">
	<path id="XMLID_841_" fill="#339DD5" d="M43.5,16.7c0-0.5-0.1-0.9-0.4-1.2c0,0,0,0,0,0c0-0.1-0.1-0.1-0.1-0.2c0,0,0,0,0,0
		c0,0-0.1-0.1-0.1-0.1c0,0,0,0,0,0c0,0,0,0-0.1-0.1L28.4,0.6c0,0-0.1-0.1-0.1-0.1c0,0,0,0,0,0c0,0-0.1-0.1-0.1-0.1c0,0,0,0-0.1,0
		c0,0-0.1,0-0.1-0.1c0,0,0,0,0,0c-0.1,0-0.1-0.1-0.2-0.1c0,0,0,0-0.1,0c0,0-0.1,0-0.1,0c0,0-0.1,0-0.1,0c0,0-0.1,0-0.1,0
		c0,0,0,0-0.1,0c-0.1,0-0.1,0-0.2,0c0,0,0,0-0.1,0c0,0-0.1,0-0.2,0c0,0,0,0,0,0H6.7C5.5,0,4.5,1,4.5,2.2v43.6c0,1.2,1,2.2,2.2,2.2
		h34.7c1.2,0,2.2-1,2.2-2.2L43.5,16.7C43.5,16.8,43.5,16.7,43.5,16.7z M29.1,7.4l7,7.1h-7V7.4z M8.8,43.6V4.4h15.9v12.4
		c0,1.2,1,2.2,2.2,2.2h12.3v24.7H8.8z"/>
	<path id="XMLID_845_" fill="#339DD5" d="M29.2,37.1L26,31.2l3.1-5.8c0.2-0.3,0.3-0.6,0.3-0.9c0-0.9-0.8-1.7-1.9-1.7
		c-1,0-1.4,0.8-1.6,1.2c0,0,0,0,0,0L24,27.7l-1.9-3.6c-0.2-0.4-0.7-1.3-1.6-1.3c-1,0-1.9,0.7-1.9,1.7c0,0.3,0.1,0.6,0.3,0.9l3.1,5.8
		l-3.1,5.8c0,0,0,0,0,0c-0.1,0.3-0.2,0.5-0.2,0.8c0,1,1,1.7,1.9,1.7c1,0,1.4-0.9,1.6-1.2l2-3.7l2,3.7c0.2,0.4,0.6,1.2,1.6,1.2
		c0.9,0,1.9-0.7,1.9-1.7C29.4,37.6,29.3,37.4,29.2,37.1C29.2,37.1,29.2,37.1,29.2,37.1z"/>
</g>
</svg>
