<?xml version="1.0" encoding="utf-8"?>
<!-- Generator: Adobe Illustrator 21.1.0, SVG Export Plug-In . SVG Version: 6.00 Build 0)  -->
<svg version="1.1" baseProfile="tiny" id="Capa_1" xmlns="http://www.w3.org/2000/svg" xmlns:xlink="http://www.w3.org/1999/xlink"
	 x="0px" y="0px" viewBox="0 0 48 48" overflow="scroll" xml:space="preserve">
<g>
	<g>
		<path fill="#339DD5" d="M24,0C10.8,0,0,10.8,0,24c0,13.2,10.8,24,24,24c13.2,0,24-10.8,24-24C48,10.8,37.2,0,24,0z M24,43.5
			C13.2,43.5,4.5,34.8,4.5,24C4.5,13.2,13.2,4.5,24,4.5S43.5,13.2,43.5,24C43.5,34.8,34.8,43.5,24,43.5z"/>
		<path fill="#339DD5" d="M35,22h-9v-9c0-1.1-0.9-2-2-2c-1.1,0-2,0.9-2,2v9h-9c-1.1,0-2,0.9-2,2c0,1.1,0.9,2,2,2h9v9
			c0,1.1,0.9,2,2,2c1.1,0,2-0.9,2-2v-9h9c1.1,0,2-0.9,2-2C37.1,22.9,36.1,22,35,22z"/>
	</g>
</g>
</svg>
