<?xml version="1.0" encoding="utf-8"?>
<!-- Generator: Adobe Illustrator 21.1.0, SVG Export Plug-In . SVG Version: 6.00 Build 0)  -->
<svg version="1.1" baseProfile="tiny" id="Слой_1"
	 xmlns="http://www.w3.org/2000/svg" xmlns:xlink="http://www.w3.org/1999/xlink" x="0px" y="0px" viewBox="0 0 167 40"
	 overflow="scroll" xml:space="preserve">
<circle fill="#FFFFFF" cx="20" cy="20" r="19.5"/>
<circle fill="#262728" cx="24.7" cy="20" r="3.3"/>
<circle fill="#262728" cx="34.6" cy="20" r="3.3"/>
<path fill="#319CD6" d="M29.7,25.7c-1.9,3.3-5.5,5.5-9.6,5.5C14,31.1,9,26.1,9,20c0-6.1,5-11.1,11.1-11.1c4.1,0,7.6,2.2,9.6,5.5
	c1.6-2.6,4.1-4.5,7.2-5.2C33.4,3.6,27.2,0,20.1,0c-11,0-20,9-20,20c0,11,9,20,20,20c7,0,13.2-3.6,16.8-9.1
	C33.9,30.2,31.3,28.3,29.7,25.7z"/>
<g>
	<path fill="#262728" d="M82.1,29c-1,0.6-3.7,1.8-6.7,1.8c-6.2,0-9.2-3-8.1-10.1c1-7.2,4.8-10.1,11-10.1c3.1,0,5.4,1.2,6.2,1.8
		l-2.9,5.2c-1.3-0.6-3.4-1-4.3-1c-2.1,0-3.4,0.4-3.9,4.1c-0.5,3.7,0.7,4.1,2.8,4.1c1,0,3-0.3,4.6-1L82.1,29z"/>
	<path fill="#262728" d="M99.5,14.5c-1.3,0.7-4.2,1.4-6.8,1.4c-1.8,0-2.4,0.5-2.6,1.7c1.1-0.4,1.6-0.5,2.7-0.5c5.1,0,7,1.8,6.3,6.5
		c-0.7,5-3.4,7.2-8.9,7.2c-6.5,0-6.9-3.1-6.2-8.6c1.6-11.3,5-11.3,8.9-11.5c3.7-0.2,4-0.4,5.3-0.7L99.5,14.5z M91.8,22
		c-1.3,0-2.4,0.2-2.6,1.8c-0.2,1.6,0.8,1.8,2.1,1.8c1.3,0,2.4-0.2,2.6-1.8C94.1,22.2,93.1,22,91.8,22z"/>
	<path fill="#262728" d="M112.3,30.5l-1.7-1.2c-1.3,1.2-2.2,1.5-3.7,1.5c-5.2,0-6.6-2.8-5.9-7.6c0.6-4.7,2.8-7.6,8-7.6
		c1.8,0,5.9,0.3,8,0.5l-2,14.4H112.3z M109.2,25.5c1.3,0,1.4-1.1,1.6-2.4l0.2-1.8c0.1-0.4-0.1-0.6-0.5-0.6H109
		c-2.1,0-2.4,0.2-2.7,2.4c-0.3,2.1-0.1,2.4,2,2.4H109.2z"/>
	<path fill="#262728" d="M130.3,29.6c-0.9,0.4-4,1.2-7,1.2c-3.6,0-5.8-1.1-5.2-4.9c0.6-4,3.3-4.2,7.4-5.1c0.1,0,0.3-0.2,0.3-0.3
		c0-0.1,0-0.3-0.3-0.3c-0.7-0.2-3.9,0.1-5.1,0.7l-0.9-4.2c0.9-0.5,3.7-1.1,6.3-1.1c3.7,0,5.7,1.1,5.2,4.9c-0.6,4-3,4-7.1,4.9
		c-0.1,0-0.3,0.3-0.3,0.4c0,0.2,0.2,0.3,0.9,0.3c1.9,0,3.9-0.6,4.7-0.8L130.3,29.6z"/>
	<path fill="#262728" d="M131.5,36.6l2.9-20.8h2.6l1.7,1.2c1.4-1.2,2.2-1.5,3.9-1.5c4.7,0,6.7,2.2,5.9,7.7c-0.7,5.4-3.2,7.5-8.3,7.5
		c-1.2,0-1.7-0.1-2.7-0.6l-0.9,6.4H131.5z M140.7,25.6c2.1,0,2.5-0.8,2.7-2.4c0.2-1.6,0.1-2.4-2-2.4h-1.1c-1.3,0-1.4,1-1.6,2.3
		c-0.2,1.2-0.4,2.4,0.9,2.4H140.7z"/>
	<path fill="#262728" d="M161.6,30.5l-1.7-1.2c-1.3,1.2-2.1,1.6-3.4,1.6c-4.8,0-6.7-2.2-5.9-7.6l1-7.4h5.3l-1,7.4
		c-0.3,2.1-0.1,2.4,2,2.4h0.6c1.3,0,1.4-1.2,1.6-2.4l1-7.3h5.2l-2.1,14.7H161.6z"/>
</g>
</svg>
