<?xml version="1.0" encoding="utf-8"?>
<!-- Generator: Adobe Illustrator 21.1.0, SVG Export Plug-In . SVG Version: 6.00 Build 0)  -->
<svg version="1.1" baseProfile="tiny" id="Layer_1" xmlns="http://www.w3.org/2000/svg" xmlns:xlink="http://www.w3.org/1999/xlink"
	 x="0px" y="0px" viewBox="0 0 41 41" overflow="scroll" xml:space="preserve">
<path fill="#FFC61B" d="M35,41H1.7c-0.7,0-1.2-0.5-1.2-1.2V20.6c0-0.7,0.5-1.2,1.2-1.2s1.2,0.5,1.2,1.2v18.1h31V36
	c0-0.7,0.5-1.2,1.2-1.2s1.2,0.5,1.2,1.2v3.8C36.2,40.5,35.7,41,35,41z"/>
<g>
	<polygon fill="#FEE187" points="1.7,14.2 1.7,13.8 14.1,1.2 14.1,14.2 	"/>
	<rect x="15.7" y="17.6" fill="#FEE187" width="23.6" height="13.1"/>
</g>
<g>
	<path fill="#FFC61B" d="M39.3,16.4h-3.1V1.2C36.2,0.5,35.7,0,35,0H14.1c0,0,0,0,0,0c0,0-0.1,0-0.1,0c0,0,0,0,0,0c0,0-0.1,0-0.1,0
		c0,0,0,0,0,0c0,0-0.1,0-0.1,0c0,0,0,0,0,0c0,0-0.1,0-0.1,0c0,0,0,0,0,0c-0.1,0-0.1,0.1-0.2,0.1c0,0,0,0,0,0c0,0,0,0-0.1,0
		c0,0,0,0,0,0c0,0-0.1,0-0.1,0.1L0.9,13c0,0-0.1,0.1-0.1,0.1c0,0,0,0,0,0.1c0,0,0,0,0,0c0,0,0,0,0,0.1c0,0,0,0,0,0c0,0,0,0.1,0,0.1
		c0,0,0,0,0,0c0,0,0,0.1,0,0.1c0,0,0,0,0,0c0,0,0,0,0,0.1c0,0,0,0,0,0c0,0,0,0,0,0.1c0,0,0,0,0,0c0,0,0,0,0,0.1c0,0,0,0,0,0v0.4
		c0,0.7,0.5,1.2,1.2,1.2h12.4c0.7,0,1.2-0.5,1.2-1.2V2.4h18.6v14H15.7c-0.7,0-1.2,0.5-1.2,1.2v13.1c0,0.7,0.5,1.2,1.2,1.2h23.6
		c0.7,0,1.2-0.5,1.2-1.2V17.6C40.5,16.9,40,16.4,39.3,16.4z M4.1,13L8,9.1l4.9-5V13H4.1L4.1,13z M38.1,29.5H16.9V18.8h21.2V29.5z"/>
	<path fill="#FFC61B" d="M19.7,20.9c0-0.3,0.2-0.5,0.6-0.5h2.1c1.3,0,2.4,0.6,2.4,2.4v0.1c0,1.7-1.1,2.4-2.5,2.4h-1v2.2
		c0,0.3-0.4,0.5-0.8,0.5c-0.4,0-0.8-0.2-0.8-0.5L19.7,20.9L19.7,20.9z M21.3,21.8V24h1c0.6,0,0.9-0.3,0.9-1v-0.1c0-0.7-0.3-1-0.9-1
		L21.3,21.8L21.3,21.8z"/>
	<path fill="#FFC61B" d="M28,20.4c1.4,0,2.5,0.7,2.5,2.4v2.7c0,1.8-1.1,2.4-2.5,2.4h-1.8c-0.4,0-0.7-0.2-0.7-0.5v-6.5
		c0-0.3,0.3-0.5,0.7-0.5L28,20.4L28,20.4z M27.1,21.8v4.7H28c0.6,0,0.9-0.3,0.9-1v-2.7c0-0.7-0.3-1-0.9-1L27.1,21.8L27.1,21.8z"/>
	<path fill="#FFC61B" d="M31.5,20.9c0-0.3,0.3-0.5,0.7-0.5h3.5c0.3,0,0.5,0.4,0.5,0.7c0,0.4-0.2,0.7-0.5,0.7h-2.6v1.7h1.5
		c0.3,0,0.5,0.3,0.5,0.6c0,0.3-0.1,0.6-0.5,0.6h-1.5v2.6c0,0.3-0.4,0.5-0.8,0.5c-0.4,0-0.8-0.2-0.8-0.5L31.5,20.9L31.5,20.9z"/>
</g>
</svg>
