<?xml version="1.0" encoding="utf-8"?>
<!-- Generator: Adobe Illustrator 21.1.0, SVG Export Plug-In . SVG Version: 6.00 Build 0)  -->
<svg version="1.1" baseProfile="tiny" id="Capa_1" xmlns="http://www.w3.org/2000/svg" xmlns:xlink="http://www.w3.org/1999/xlink"
	  height="20px" width="20px" viewBox="0 0 17 17" overflow="scroll" xml:space="preserve">
<g>
	<g>
		<path d="M16.1,3.8h-3.4l-0.7-2c-0.1-0.2-0.3-0.4-0.5-0.4H5.6C5.3,1.5,5.1,1.6,5,1.9l-0.7,2H0.9C0.4,3.8,0,4.3,0,4.8v9.7
			c0,0.5,0.4,1,0.9,1h15.1c0.5,0,0.9-0.4,0.9-1V4.8C17,4.3,16.6,3.8,16.1,3.8z M15.9,14.3H1.1V5h3.6c0.2,0,0.4-0.1,0.5-0.4l0.7-2H11
			l0.7,2C11.9,4.9,12.1,5,12.3,5h3.6L15.9,14.3L15.9,14.3z"/>
	</g>
</g>
<g>
	<g>
		<path d="M8.5,5.1c-2.2,0-4,1.8-4,4.1c0,2.3,1.8,4.1,4,4.1s4-1.8,4-4.1S10.7,5.1,8.5,5.1z M8.5,12.1c-1.6,0-2.9-1.3-2.9-2.9
			s1.3-2.9,2.9-2.9c1.6,0,2.9,1.3,2.9,2.9C11.4,10.8,10.1,12.1,8.5,12.1z"/>
	</g>
</g>
</svg>
