<?xml version="1.0" encoding="utf-8"?>
<!-- Generator: Adobe Illustrator 21.1.0, SVG Export Plug-In . SVG Version: 6.00 Build 0)  -->
<svg version="1.1" baseProfile="tiny" id="Layer_1" xmlns="http://www.w3.org/2000/svg" xmlns:xlink="http://www.w3.org/1999/xlink"
	 x="0px" y="0px" viewBox="0 0 41 41" overflow="scroll" xml:space="preserve">
<path fill="#B3404A" d="M35.1,41H1.6c-0.7,0-1.2-0.5-1.2-1.2V20.6c0-0.7,0.5-1.2,1.2-1.2s1.2,0.5,1.2,1.2v18h31.2V36
	c0-0.7,0.5-1.2,1.2-1.2c0.7,0,1.2,0.5,1.2,1.2v3.8C36.3,40.5,35.8,41,35.1,41z"/>
<g>
	<polygon fill="#F4B2B0" points="1.6,14.2 1.6,13.8 14.1,1.2 14.1,14.2 	"/>
	<rect x="15.7" y="17.6" fill="#F4B2B0" width="23.7" height="13.1"/>
</g>
<g>
	<path fill="#B3404A" d="M39.4,16.4h-3.1V1.2c0-0.7-0.5-1.2-1.2-1.2H14.1c0,0,0,0,0,0c0,0,0,0,0,0c-0.1,0-0.1,0-0.2,0c0,0,0,0,0,0
		c0,0-0.1,0-0.1,0c0,0,0,0,0,0c0,0-0.1,0-0.1,0.1c0,0,0,0,0,0c0,0-0.1,0.1-0.1,0.1c0,0,0,0,0,0c0,0-0.1,0.1-0.1,0.1L0.7,13
		c0,0-0.1,0.1-0.1,0.1c0,0,0,0,0,0.1c0,0,0,0,0,0c0,0,0,0.1,0,0.1c0,0,0,0,0,0c0,0,0,0.1,0,0.1c0,0,0,0,0,0c0,0,0,0.1,0,0.1
		c0,0,0,0,0,0c0,0,0,0.1,0,0.1c0,0,0,0,0,0c0,0,0,0,0,0.1c0,0,0,0,0,0c0,0,0,0,0,0.1c0,0,0,0,0,0v0.4c0,0.7,0.5,1.2,1.2,1.2h12.5
		c0.7,0,1.2-0.5,1.2-1.2V2.4h18.7v14H15.7c-0.7,0-1.2,0.5-1.2,1.2v13.1c0,0.7,0.5,1.2,1.2,1.2h23.7c0.7,0,1.2-0.5,1.2-1.2V17.6
		C40.6,16.9,40.1,16.4,39.4,16.4z M12.9,13H4.1l4.5-4.6l4.3-4.3L12.9,13L12.9,13z M38.2,29.5H16.9V18.8h21.3V29.5z"/>
	<path fill="#B3404A" d="M19.9,20.8c0-0.3,0.2-0.5,0.6-0.5h2.1c1.3,0,2.4,0.6,2.4,2.3v0.1c0,1.7-1.1,2.3-2.5,2.3h-1v2.2
		c0,0.3-0.4,0.5-0.8,0.5c-0.4,0-0.8-0.2-0.8-0.5V20.8z M21.5,21.7v2.1h1c0.6,0,0.9-0.3,0.9-1v-0.1c0-0.7-0.3-1-0.9-1L21.5,21.7
		L21.5,21.7z"/>
	<path fill="#B3404A" d="M25.6,20.8c0-0.3,0.2-0.5,0.6-0.5h2.1c1.3,0,2.4,0.6,2.4,2.3v0.1c0,1.7-1.1,2.3-2.5,2.3h-1v2.2
		c0,0.3-0.4,0.5-0.8,0.5s-0.8-0.2-0.8-0.5L25.6,20.8L25.6,20.8z M27.2,21.7v2.1h1c0.6,0,0.9-0.3,0.9-1v-0.1c0-0.7-0.3-1-0.9-1
		L27.2,21.7L27.2,21.7z"/>
	<path fill="#B3404A" d="M35.6,20.3c0.3,0,0.5,0.4,0.5,0.7c0,0.4-0.2,0.7-0.5,0.7h-1.4v5.4c0,0.3-0.4,0.5-0.8,0.5
		c-0.4,0-0.8-0.2-0.8-0.5v-5.4h-1.4c-0.3,0-0.5-0.3-0.5-0.7c0-0.3,0.1-0.7,0.5-0.7H35.6z"/>
</g>
</svg>
