<?xml version="1.0" encoding="utf-8"?>
<!-- Generator: Adobe Illustrator 21.1.0, SVG Export Plug-In . SVG Version: 6.00 Build 0)  -->
<svg version="1.1" baseProfile="tiny" id="Capa_1" xmlns="http://www.w3.org/2000/svg" xmlns:xlink="http://www.w3.org/1999/xlink"
	 x="0px" y="0px" viewBox="0 0 14 14" overflow="scroll" xml:space="preserve">
<g>
	<g>
		<path d="M13.5,13.5V4.4c0-0.1-0.1-0.3-0.2-0.4L9.1,0.1C9,0.1,8.9,0,8.8,0H2.2C2,0,1.7,0.2,1.7,0.5v5.8c0,0.3,0.2,0.5,0.5,0.5
			s0.5-0.2,0.5-0.5V1h5.3v4c0,0.3,0.2,0.5,0.5,0.5h3.8c0,0,0.1,0,0.1,0V13H2.8v-2.1c0-0.3-0.2-0.5-0.5-0.5s-0.5,0.2-0.5,0.5v2.6
			C1.7,13.8,2,14,2.2,14H13C13.3,14,13.5,13.8,13.5,13.5z M9.1,1.6l3.2,2.9H9.1V1.6z"/>
		<path d="M0.5,8.5C0.5,8.8,0.7,9,1,9h5.5l-1.7,1.5c-0.2,0.2-0.2,0.5,0,0.7c0.1,0.1,0.2,0.2,0.4,0.2c0.1,0,0.2,0,0.3-0.1l2.7-2.4
			c0.1-0.1,0.2-0.2,0.2-0.4c0-0.1-0.1-0.3-0.2-0.4L5.5,5.7c-0.2-0.2-0.5-0.2-0.7,0C4.6,6,4.6,6.3,4.8,6.5L6.5,8H1
			C0.7,8,0.5,8.2,0.5,8.5z"/>
	</g>
</g>
</svg>
