<?xml version="1.0" encoding="utf-8"?>
<!-- Generator: Adobe Illustrator 21.1.0, SVG Export Plug-In . SVG Version: 6.00 Build 0)  -->
<svg version="1.1" baseProfile="tiny" id="Слой_1"
	 xmlns="http://www.w3.org/2000/svg" xmlns:xlink="http://www.w3.org/1999/xlink" width="19px" height="25px" viewBox="0 0 18 18"
	 overflow="scroll" xml:space="preserve">
<g>
	<g>
		<path fill="#319CD6" d="M12.1,11.5c1.1-1.2,1.8-2.8,1.8-4.6c0-3.8-3.1-6.8-6.8-6.8S0.2,3.1,0.2,6.9s3.1,6.8,6.8,6.8
			c1.5,0,3-0.5,4.1-1.4l5.1,5.1c0.1,0.1,0.3,0.2,0.4,0.2s0.3-0.1,0.4-0.2c0.2-0.2,0.2-0.6,0-0.9L12.1,11.5z M1.5,6.9
			c0-3.1,2.5-5.6,5.6-5.6c3.1,0,5.6,2.5,5.6,5.6s-2.5,5.6-5.6,5.6S1.5,10,1.5,6.9z"/>
	</g>
</g>
</svg>
