<?xml version="1.0" encoding="utf-8"?>
<!-- Generator: Adobe Illustrator 21.1.0, SVG Export Plug-In . SVG Version: 6.00 Build 0)  -->
<svg version="1.1" id="Capa_1" xmlns="http://www.w3.org/2000/svg" xmlns:xlink="http://www.w3.org/1999/xlink" x="0px" y="0px"
	 viewBox="0 0 33 33" style="enable-background:new 0 0 33 33;" xml:space="preserve">
<style type="text/css">
	.st0{fill:#C8C8C8;}
</style>
<g>
	<g>
		<g>
			<path class="st0" d="M16.5,0C7.5,0,0,7.5,0,16.5S7.5,33,16.5,33S33,25.7,33,16.5S25.7,0,16.5,0z M16.5,30C9,30,3,24,3,16.5
				S9,3,16.5,3S30,9,30,16.5S24,30,16.5,30z"/>
			<path class="st0" d="M18.8,22.4l-1.4,0.7l1.7-9.2c0.2-1-0.9-2.1-1.9-1.4l-3.3,1.7c-0.7,0.3-0.9,1.2-0.5,1.7
				c0.3,0.7,1.2,0.9,1.7,0.5l0.9-0.3L14.2,25c-0.2,0.7,0.5,1.6,1.4,1.6c0.2,0,0.3,0,0.5-0.2l3.6-1.6c0.7-0.3,1-1,0.7-1.7
				C20.1,22.4,19.5,22.2,18.8,22.4z"/>
			<path class="st0" d="M17.9,9.9c1,0,1.9-0.9,1.9-1.9s-0.9-1.9-1.9-1.9C16.8,6.3,16,6.9,16,8S16.8,9.9,17.9,9.9z"/>
		</g>
	</g>
</g>
</svg>
