<?xml version="1.0" encoding="utf-8"?>
<!-- Generator: Adobe Illustrator 21.1.0, SVG Export Plug-In . SVG Version: 6.00 Build 0)  -->
<svg version="1.1" baseProfile="tiny" id="Слой_1"
	 xmlns="http://www.w3.org/2000/svg" xmlns:xlink="http://www.w3.org/1999/xlink" x="0px" y="0px" viewBox="0 0 20 20"
	 xml:space="preserve">
<g id="XMLID_16_">
	<path id="XMLID_17_" d="M18.6,0h-1.9c-0.8,0-1.4,0.6-1.4,1.4v1.9c0,0.8,0.6,1.4,1.4,1.4h1.9c0.8,0,1.4-0.6,1.4-1.4V1.4
		C20,0.6,19.4,0,18.6,0z"/>
	<path id="XMLID_18_" d="M11,0H9C8.3,0,7.6,0.6,7.6,1.4v1.9c0,0.8,0.6,1.4,1.4,1.4H11c0.8,0,1.4-0.6,1.4-1.4V1.4
		C12.4,0.6,11.7,0,11,0z"/>
	<path id="XMLID_19_" d="M3.3,0H1.4C0.6,0,0,0.6,0,1.4v1.9c0,0.8,0.6,1.4,1.4,1.4h1.9c0.8,0,1.4-0.6,1.4-1.4V1.4
		C4.8,0.6,4.1,0,3.3,0z"/>
	<path id="XMLID_20_" d="M18.6,15.2h-1.9c-0.8,0-1.4,0.6-1.4,1.4v1.9c0,0.8,0.6,1.4,1.4,1.4h1.9c0.8,0,1.4-0.6,1.4-1.4v-1.9
		C20,15.9,19.4,15.2,18.6,15.2z"/>
	<path id="XMLID_21_" d="M11,15.2H9c-0.8,0-1.4,0.6-1.4,1.4v1.9C7.6,19.4,8.3,20,9,20H11c0.8,0,1.4-0.6,1.4-1.4v-1.9
		C12.4,15.9,11.7,15.2,11,15.2z"/>
	<path id="XMLID_22_" d="M3.3,15.2H1.4c-0.8,0-1.4,0.6-1.4,1.4v1.9C0,19.4,0.6,20,1.4,20h1.9c0.8,0,1.4-0.6,1.4-1.4v-1.9
		C4.8,15.9,4.1,15.2,3.3,15.2z"/>
	<path id="XMLID_23_" d="M18.6,7.6h-1.9c-0.8,0-1.4,0.6-1.4,1.4V11c0,0.8,0.6,1.4,1.4,1.4h1.9c0.8,0,1.4-0.6,1.4-1.4V9
		C20,8.3,19.4,7.6,18.6,7.6z"/>
	<path id="XMLID_24_" d="M11,7.6H9C8.3,7.6,7.6,8.3,7.6,9V11c0,0.8,0.6,1.4,1.4,1.4H11c0.8,0,1.4-0.6,1.4-1.4V9
		C12.4,8.3,11.7,7.6,11,7.6z"/>
	<path id="XMLID_25_" d="M3.3,7.6H1.4C0.6,7.6,0,8.3,0,9V11c0,0.8,0.6,1.4,1.4,1.4h1.9c0.8,0,1.4-0.6,1.4-1.4V9
		C4.8,8.3,4.1,7.6,3.3,7.6z"/>
</g>
</svg>
