<?xml version="1.0" encoding="utf-8"?>
<!-- Generator: Adobe Illustrator 21.1.0, SVG Export Plug-In . SVG Version: 6.00 Build 0)  -->
<svg version="1.1" baseProfile="tiny" id="Capa_1" xmlns="http://www.w3.org/2000/svg" xmlns:xlink="http://www.w3.org/1999/xlink"
	 x="0px" y="0px" viewBox="0 0 19 19" overflow="scroll" xml:space="preserve">
<g>
	<g>
		<path fill="#C8C8C8" d="M9.5,0C5.8,0,2.8,3,2.8,6.7c0,1.2,0.3,2.5,1,3.5l5.3,8.5C9.2,18.9,9.4,19,9.6,19c0,0,0,0,0,0
			c0.2,0,0.4-0.1,0.5-0.3l5.2-8.6c0.6-1,0.9-2.2,0.9-3.4C16.2,3,13.2,0,9.5,0z M14.3,9.5l-4.7,7.8L4.8,9.6C4.2,8.7,3.9,7.7,3.9,6.7
			c0-3.1,2.5-5.6,5.6-5.6s5.6,2.5,5.6,5.6C15.1,7.7,14.8,8.7,14.3,9.5z"/>
	</g>
</g>
<g>
	<g>
		<path fill="#C8C8C8" d="M9.5,3.3c-1.8,0-3.3,1.5-3.3,3.3c0,1.8,1.5,3.3,3.3,3.3c1.9,0,3.3-1.5,3.3-3.3C12.8,4.8,11.3,3.3,9.5,3.3z
			 M9.5,8.9c-1.2,0-2.2-1-2.2-2.2c0-1.2,1-2.2,2.2-2.2s2.2,1,2.2,2.2C11.7,7.9,10.8,8.9,9.5,8.9z"/>
	</g>
</g>
</svg>
