<?xml version="1.0" encoding="utf-8"?>
<!-- Generator: Adobe Illustrator 21.1.0, SVG Export Plug-In . SVG Version: 6.00 Build 0)  -->
<svg version="1.1" baseProfile="tiny" id="Слой_1"
	 xmlns="http://www.w3.org/2000/svg" xmlns:xlink="http://www.w3.org/1999/xlink" x="0px" y="0px" viewBox="0 0 19 28"
	 overflow="scroll" xml:space="preserve">
<g>
	<g>
		<path fill="#319CD6" d="M9.5,0C4.3,0,0,4.2,0,9.3c0,1.5,0.4,3.1,1.1,4.4L9,27.7C9.1,27.9,9.3,28,9.5,28c0.2,0,0.4-0.1,0.5-0.3
			l7.8-13.9c0.7-1.4,1.1-2.9,1.1-4.4C19,4.2,14.7,0,9.5,0z M9.5,14c-2.6,0-4.7-2.1-4.7-4.7s2.1-4.7,4.7-4.7s4.7,2.1,4.7,4.7
			S12.1,14,9.5,14z"/>
	</g>
</g>
</svg>
