<?xml version="1.0" encoding="utf-8"?>
<!-- Generator: Adobe Illustrator 21.1.0, SVG Export Plug-In . SVG Version: 6.00 Build 0)  -->
<svg version="1.1" id="Слой_1" xmlns="http://www.w3.org/2000/svg" xmlns:xlink="http://www.w3.org/1999/xlink" x="0px" y="0px"
	 viewBox="0 0 41 40" style="enable-background:new 0 0 41 40;" xml:space="preserve">
<style type="text/css">
	.st0{fill:#FFFFFF;}
</style>
<path class="st0" d="M20.4,0C9.2,0,0,9,0,20.2s9.1,20.2,20.4,20.2s20.4-9,20.4-20.2S31.7,0,20.4,0z M31,20.7l-15,10.1
	c-0.1,0.1-0.2,0.1-0.4,0.1c-0.1,0-0.2,0-0.3-0.1c-0.2-0.1-0.4-0.3-0.4-0.6V10.1c0-0.2,0.1-0.5,0.4-0.6c0.2-0.1,0.5-0.1,0.7,0
	l15,10.1c0.2,0.1,0.3,0.3,0.3,0.6S31.2,20.6,31,20.7z"/>
</svg>
