<?xml version="1.0" encoding="utf-8"?>
<!-- Generator: Adobe Illustrator 21.1.0, SVG Export Plug-In . SVG Version: 6.00 Build 0)  -->
<svg version="1.1" baseProfile="tiny" id="Capa_1" xmlns="http://www.w3.org/2000/svg" xmlns:xlink="http://www.w3.org/1999/xlink"
	 x="0px" y="0px" viewBox="0 0 19 19" overflow="scroll" xml:space="preserve">
<g>
	<path fill="#C8C8C8" d="M18.8,6.7C16.3,4.3,13,2.9,9.5,2.9c0,0,0,0,0,0c0,0,0,0,0,0C6,2.9,2.7,4.3,0.2,6.7c-0.2,0.2-0.2,0.6,0,0.8
		c0.1,0.1,0.3,0.2,0.4,0.2c0.1,0,0.3-0.1,0.4-0.2c2.3-2.2,5.3-3.4,8.5-3.4c3.2,0,6.2,1.2,8.5,3.4c0.2,0.2,0.6,0.2,0.8,0
		C19.1,7.3,19.1,6.9,18.8,6.7z"/>
	<path fill="#C8C8C8" d="M9.5,7.2c-4.1,0-7.2,2.8-8.4,4c-0.2,0.2-0.2,0.6,0,0.8c1.1,1.2,4.2,4,8.4,4c4.1,0,7.2-2.8,8.4-4
		c0.2-0.2,0.2-0.6,0-0.8C16.7,10,13.6,7.2,9.5,7.2z M5.7,9.3c-0.4,0.7-0.6,1.5-0.6,2.4c0,0.8,0.2,1.5,0.5,2.2
		c-1.4-0.7-2.5-1.6-3.2-2.3C3.1,11,4.3,10,5.7,9.3z M8,14.7c-1.1-0.6-1.7-1.7-1.7-3c0-1.5,0.9-2.7,2.2-3.2c0.4,0,0.7-0.1,1.1-0.1
		c0.3,0,0.5,0,0.8,0c1.3,0.4,2.3,1.8,2.3,3.2c0,1.3-0.7,2.5-1.8,3.1c-0.4,0.1-0.8,0.1-1.3,0.1C9,14.9,8.5,14.8,8,14.7z M13.2,14
		c0.4-0.7,0.6-1.5,0.6-2.3c0-0.9-0.2-1.7-0.7-2.5c1.6,0.7,2.8,1.7,3.5,2.4C15.9,12.4,14.7,13.3,13.2,14z"/>
	<path fill="#C8C8C8" d="M10.9,11.7c-0.8,0-1.5-0.7-1.5-1.5c-0.8,0-1.5,0.7-1.5,1.5c0,0.8,0.7,1.5,1.5,1.5
		C10.2,13.2,10.9,12.5,10.9,11.7z"/>
</g>
</svg>
