<?xml version="1.0" encoding="utf-8"?>
<!-- Generator: Adobe Illustrator 21.1.0, SVG Export Plug-In . SVG Version: 6.00 Build 0)  -->
<svg version="1.1" id="Слой_1" xmlns="http://www.w3.org/2000/svg" xmlns:xlink="http://www.w3.org/1999/xlink" x="0px" y="0px"
	 viewBox="0 0 92 40" style="enable-background:new 0 0 92 40;" xml:space="preserve">
<style type="text/css">
	.st0{fill:#FFFFFF;}
</style>
<g>
	<path class="st0" d="M13.4,26.7c-0.9,0.6-3.5,1.7-6.3,1.7c-5.8,0-8.6-2.8-7.6-9.4c0.9-6.7,4.5-9.4,10.3-9.4c2.9,0,5,1.1,5.8,1.7
		L13,16c-1.2-0.6-3.2-0.9-4-0.9c-2,0-3.2,0.4-3.6,3.8s0.7,3.8,2.6,3.8c0.9,0,2.8-0.3,4.3-0.9L13.4,26.7z"/>
	<path class="st0" d="M29.7,13.1c-1.2,0.7-3.9,1.3-6.3,1.3c-1.7,0-2.2,0.5-2.4,1.6c1-0.4,1.5-0.5,2.5-0.5c4.8,0,6.5,1.7,5.9,6.1
		c-0.7,4.7-3.2,6.7-8.3,6.7c-6.1,0-6.4-2.9-5.8-8c1.5-10.5,4.7-10.5,8.3-10.7c3.5-0.2,3.7-0.4,4.9-0.7L29.7,13.1z M22.5,20.1
		c-1.2,0-2.2,0.2-2.4,1.7c-0.2,1.5,0.7,1.7,2,1.7c1.2,0,2.2-0.2,2.4-1.7C24.6,20.3,23.7,20.1,22.5,20.1z"/>
	<path class="st0" d="M41.6,28.1L40,27c-1.2,1.1-2.1,1.4-3.5,1.4c-4.9,0-6.2-2.6-5.5-7.1c0.6-4.4,2.6-7.1,7.5-7.1
		c1.7,0,5.5,0.3,7.5,0.5l-1.9,13.4C44.1,28.1,41.6,28.1,41.6,28.1z M38.7,23.4c1.2,0,1.3-1,1.5-2.2l0.2-1.7c0.1-0.4-0.1-0.6-0.5-0.6
		h-1.4c-2,0-2.2,0.2-2.5,2.2c-0.3,2-0.1,2.2,1.9,2.2H38.7z"/>
	<path class="st0" d="M58.4,27.2c-0.8,0.4-3.7,1.1-6.5,1.1c-3.4,0-5.4-1-4.9-4.6c0.6-3.7,3.1-3.9,6.9-4.8c0.1,0,0.3-0.2,0.3-0.3
		s0-0.3-0.3-0.3c-0.7-0.2-3.6,0.1-4.8,0.7l-0.8-3.9c0.8-0.5,3.5-1,5.9-1c3.5,0,5.3,1,4.9,4.6c-0.6,3.7-2.8,3.7-6.6,4.6
		c-0.1,0-0.3,0.3-0.3,0.4c0,0.2,0.2,0.3,0.8,0.3c1.8,0,3.6-0.6,4.4-0.7L58.4,27.2z"/>
	<path class="st0" d="M59.5,33.8l2.7-19.4h2.4l1.6,1.1c1.3-1.1,2.1-1.4,3.6-1.4c4.4,0,6.3,2.1,5.5,7.2c-0.7,5-3,7-7.7,7
		c-1.1,0-1.6-0.1-2.5-0.6l-0.8,6L59.5,33.8L59.5,33.8z M68.1,23.5c2,0,2.3-0.7,2.5-2.2s0.1-2.2-1.9-2.2h-1c-1.2,0-1.3,0.9-1.5,2.1
		c-0.2,1.1-0.4,2.2,0.8,2.2L68.1,23.5L68.1,23.5z"/>
	<path class="st0" d="M87.6,28.1L86,27c-1.2,1.1-2,1.5-3.2,1.5c-4.5,0-6.3-2.1-5.5-7.1l0.9-6.9h4.9l-0.9,6.9c-0.3,2-0.1,2.2,1.9,2.2
		h0.6c1.2,0,1.3-1.1,1.5-2.2l0.9-6.8H92l-2,13.7h-2.4V28.1z"/>
</g>
<path class="st0" d="M128.1-0.5c-11.2,0-20.4,9.1-20.4,20.4s9.1,20.4,20.4,20.4c11.2,0,20.4-9.1,20.4-20.4S139.3-0.5,128.1-0.5z
	 M138.6,20.5l-15,10.2c-0.1,0.1-0.2,0.1-0.4,0.1c-0.1,0-0.2,0-0.3-0.1c-0.2-0.1-0.4-0.3-0.4-0.6V9.7c0-0.3,0.1-0.5,0.4-0.6
	c0.2-0.1,0.5-0.1,0.7,0l15,10.2c0.2,0.1,0.3,0.3,0.3,0.6C138.9,20.1,138.8,20.4,138.6,20.5z"/>
</svg>
