<?xml version="1.0" encoding="utf-8"?>
<!-- Generator: Adobe Illustrator 21.1.0, SVG Export Plug-In . SVG Version: 6.00 Build 0)  -->
<svg version="1.1" baseProfile="tiny" id="Слой_1"
	 xmlns="http://www.w3.org/2000/svg" xmlns:xlink="http://www.w3.org/1999/xlink" x="0px" y="0px" viewBox="0 0 19 19"
	 overflow="scroll" xml:space="preserve">
<path fill="#319CD6" d="M0,0.1v19h19v-19H0z M14.3,10.6c0.4,0.4,0.9,0.8,1.3,1.3c0.2,0.2,0.3,0.4,0.5,0.7c0.2,0.3,0,0.7-0.3,0.7
	l-1.9,0c-0.5,0-0.9-0.2-1.2-0.5c-0.3-0.3-0.5-0.6-0.8-0.8c-0.1-0.1-0.2-0.2-0.3-0.3c-0.3-0.2-0.5-0.1-0.6,0.2
	c-0.2,0.3-0.2,0.6-0.2,0.9c0,0.5-0.2,0.6-0.6,0.6c-1,0-1.9-0.1-2.7-0.6c-0.8-0.4-1.3-1-1.8-1.7C4.4,9.6,3.7,8.1,3,6.6
	C2.9,6.3,3,6.1,3.3,6.1c0.6,0,1.3,0,1.9,0c0.3,0,0.4,0.1,0.5,0.4C6.1,7.3,6.5,8.1,7,8.8C7.1,9,7.3,9.2,7.5,9.4
	C7.7,9.5,7.9,9.5,8,9.2c0.1-0.2,0.1-0.3,0.1-0.5c0-0.6,0.1-1.2,0-1.7C8,6.6,7.8,6.4,7.5,6.3c-0.2,0-0.2-0.1-0.1-0.2
	C7.5,5.9,7.7,5.8,8,5.8h2.2c0.3,0.1,0.4,0.2,0.5,0.6l0,2.4c0,0.1,0.1,0.5,0.3,0.6c0.2,0.1,0.3-0.1,0.4-0.2c0.5-0.6,0.9-1.2,1.2-1.9
	C12.7,7,12.8,6.7,13,6.4c0.1-0.2,0.2-0.3,0.5-0.3l2.1,0c0.1,0,0.1,0,0.2,0c0.4,0.1,0.4,0.2,0.3,0.6c-0.2,0.5-0.5,1-0.8,1.4
	c-0.3,0.5-0.7,0.9-1.1,1.4C13.8,10,13.9,10.2,14.3,10.6z"/>
</svg>
