<?xml version="1.0" encoding="utf-8"?>
<!-- Generator: Adobe Illustrator 21.1.0, SVG Export Plug-In . SVG Version: 6.00 Build 0)  -->
<svg version="1.1" id="Layer_1" xmlns="http://www.w3.org/2000/svg" xmlns:xlink="http://www.w3.org/1999/xlink" x="0px" y="0px"
	 viewBox="0 0 41 41" style="enable-background:new 0 0 41 41;" xml:space="preserve">
<style type="text/css">
	.st0{fill:#507C5C;}
	.st1{fill:#CFF09E;}
</style>
<path class="st0" d="M35.1,41H1.6c-0.7,0-1.2-0.5-1.2-1.2V20.6c0-0.7,0.5-1.2,1.2-1.2s1.2,0.5,1.2,1.2v18h31.2V36
	c0-0.7,0.5-1.2,1.2-1.2s1.2,0.5,1.2,1.2v3.8C36.3,40.5,35.8,41,35.1,41z"/>
<g>
	<polygon class="st1" points="1.6,14.2 1.6,13.8 14.1,1.2 14.1,14.2 	"/>
	<rect x="15.7" y="17.6" class="st1" width="23.7" height="13.1"/>
</g>
<g>
	<path class="st0" d="M39.4,16.4h-3.1V1.2c0-0.7-0.5-1.2-1.2-1.2H14.1c0,0,0,0,0,0c0,0,0,0,0,0c-0.1,0-0.1,0-0.2,0c0,0,0,0,0,0
		c0,0-0.1,0-0.1,0c0,0,0,0,0,0c0,0-0.1,0-0.1,0.1c0,0,0,0,0,0c0,0-0.1,0.1-0.1,0.1c0,0,0,0,0,0c0,0-0.1,0.1-0.1,0.1L0.7,13
		c0,0-0.1,0.1-0.1,0.1c0,0,0,0,0,0.1c0,0,0,0,0,0c0,0,0,0.1,0,0.1c0,0,0,0,0,0c0,0,0,0.1,0,0.1c0,0,0,0,0,0c0,0,0,0.1,0,0.1
		c0,0,0,0,0,0c0,0,0,0.1,0,0.1c0,0,0,0,0,0c0,0,0,0,0,0.1c0,0,0,0,0,0c0,0,0,0,0,0.1c0,0,0,0,0,0v0.4c0,0.7,0.5,1.2,1.2,1.2h12.5
		c0.7,0,1.2-0.5,1.2-1.2V2.4h18.7v14H15.7c-0.7,0-1.2,0.5-1.2,1.2v13.1c0,0.7,0.5,1.2,1.2,1.2h23.7c0.7,0,1.2-0.5,1.2-1.2V17.6
		C40.6,16.9,40.1,16.4,39.4,16.4z M4.1,13l8.8-8.9V13H4.1z M38.2,29.5H16.9V18.8h21.3L38.2,29.5L38.2,29.5z"/>
	<path class="st0" d="M20.5,25.1l-1.3,2.2c-0.1,0.1-0.2,0.1-0.3,0.1c-0.4,0-0.9-0.3-0.9-0.7c0-0.1,0-0.2,0.1-0.2l1.5-2.4l-1.5-2.3
		C18,21.7,18,21.7,18,21.6c0-0.4,0.5-0.7,0.9-0.7c0.2,0,0.3,0.1,0.4,0.2l1.2,2l1.2-2c0.1-0.2,0.2-0.2,0.4-0.2c0.4,0,0.9,0.3,0.9,0.7
		c0,0.1,0,0.2-0.1,0.3l-1.5,2.3l1.5,2.4c0.1,0.1,0.1,0.2,0.1,0.2c0,0.4-0.5,0.7-0.9,0.7c-0.1,0-0.3,0-0.3-0.1L20.5,25.1z"/>
	<path class="st0" d="M24.2,27.4c-0.3,0-0.6-0.1-0.6-0.4v-5.6c0-0.3,0.3-0.4,0.7-0.4c0.3,0,0.7,0.1,0.7,0.4v4.8h2
		c0.3,0,0.4,0.3,0.4,0.6c0,0.3-0.1,0.6-0.4,0.6L24.2,27.4L24.2,27.4L24.2,27.4z"/>
	<path class="st0" d="M30.5,25.7c0-1.1-2.8-0.9-2.8-2.9c0-1.3,1.2-1.8,2.3-1.8c0.5,0,1.8,0.1,1.8,0.8c0,0.2-0.2,0.7-0.5,0.7
		c-0.3,0-0.5-0.3-1.2-0.3c-0.6,0-0.9,0.3-0.9,0.5c0,0.9,2.8,0.7,2.8,2.9c0,1.3-0.9,2-2.2,2c-1.2,0-2.1-0.6-2.1-1.1
		c0-0.3,0.3-0.7,0.6-0.7c0.4,0,0.7,0.7,1.5,0.7C30.1,26.3,30.5,26.1,30.5,25.7z"/>
	<path class="st0" d="M34.7,25.1l-1.3,2.2c-0.1,0.1-0.2,0.1-0.3,0.1c-0.4,0-0.9-0.3-0.9-0.7c0-0.1,0-0.2,0.1-0.2l1.5-2.4l-1.5-2.3
		c-0.1-0.1-0.1-0.2-0.1-0.3c0-0.4,0.5-0.7,0.9-0.7c0.2,0,0.3,0.1,0.4,0.2l1.2,2l1.2-2c0.1-0.2,0.2-0.2,0.4-0.2
		c0.4,0,0.9,0.3,0.9,0.7c0,0.1,0,0.2-0.1,0.3l-1.5,2.3l1.5,2.4c0.1,0.1,0.1,0.2,0.1,0.2c0,0.4-0.5,0.7-0.9,0.7c-0.1,0-0.3,0-0.3-0.1
		L34.7,25.1z"/>
</g>
</svg>
